<svg xmlns="http://www.w3.org/2000/svg" xmlns:xlink="http://www.w3.org/1999/xlink" version="1.1" class="marks" width="937" height="849" viewBox="0 0 937 849"><rect width="937" height="849" fill="white"/><g fill="none" stroke-miterlimit="10" transform="translate(47,12)"><g class="mark-group role-frame root" role="graphics-object" aria-roledescription="group mark container"><g transform="translate(0,0)"><path class="background" aria-hidden="true" d="M0.5,0.5h800v800h-800Z" stroke="#ddd"/><g><g class="mark-group role-axis" aria-hidden="true"><g transform="translate(0.5,800.5)"><path class="background" aria-hidden="true" d="M0,0h0v0h0Z" pointer-events="none"/><g><g class="mark-rule role-axis-grid" pointer-events="none"><line transform="translate(0,-800)" x2="0" y2="800" stroke="#ddd" stroke-width="1" opacity="1"/><line transform="translate(40,-800)" x2="0" y2="800" stroke="#ddd" stroke-width="1" opacity="1"/><line transform="translate(80,-800)" x2="0" y2="800" stroke="#ddd" stroke-width="1" opacity="1"/><line transform="translate(120,-800)" x2="0" y2="800" stroke="#ddd" stroke-width="1" opacity="1"/><line transform="translate(160,-800)" x2="0" y2="800" stroke="#ddd" stroke-width="1" opacity="1"/><line transform="translate(200,-800)" x2="0" y2="800" stroke="#ddd" stroke-width="1" opacity="1"/><line transform="translate(240,-800)" x2="0" y2="800" stroke="#ddd" stroke-width="1" opacity="1"/><line transform="translate(280,-800)" x2="0" y2="800" stroke="#ddd" stroke-width="1" opacity="1"/><line transform="translate(320,-800)" x2="0" y2="800" stroke="#ddd" stroke-width="1" opacity="1"/><line transform="translate(360,-800)" x2="0" y2="800" stroke="#ddd" stroke-width="1" opacity="1"/><line transform="translate(400,-800)" x2="0" y2="800" stroke="#ddd" stroke-width="1" opacity="1"/><line transform="translate(440,-800)" x2="0" y2="800" stroke="#ddd" stroke-width="1" opacity="1"/><line transform="translate(480,-800)" x2="0" y2="800" stroke="#ddd" stroke-width="1" opacity="1"/><line transform="translate(520,-800)" x2="0" y2="800" stroke="#ddd" stroke-width="1" opacity="1"/><line transform="translate(560,-800)" x2="0" y2="800" stroke="#ddd" stroke-width="1" opacity="1"/><line transform="translate(600,-800)" x2="0" y2="800" stroke="#ddd" stroke-width="1" opacity="1"/><line transform="translate(640,-800)" x2="0" y2="800" stroke="#ddd" stroke-width="1" opacity="1"/><line transform="translate(680,-800)" x2="0" y2="800" stroke="#ddd" stroke-width="1" opacity="1"/><line transform="translate(720,-800)" x2="0" y2="800" stroke="#ddd" stroke-width="1" opacity="1"/><line transform="translate(760,-800)" x2="0" y2="800" stroke="#ddd" stroke-width="1" opacity="1"/><line transform="translate(800,-800)" x2="0" y2="800" stroke="#ddd" stroke-width="1" opacity="1"/></g></g><path class="foreground" aria-hidden="true" d="" pointer-events="none" display="none"/></g></g><g class="mark-group role-axis" aria-hidden="true"><g transform="translate(0.5,0.5)"><path class="background" aria-hidden="true" d="M0,0h0v0h0Z" pointer-events="none"/><g><g class="mark-rule role-axis-grid" pointer-events="none"><line transform="translate(0,800)" x2="800" y2="0" stroke="#ddd" stroke-width="1" opacity="1"/><line transform="translate(0,760)" x2="800" y2="0" stroke="#ddd" stroke-width="1" opacity="1"/><line transform="translate(0,720)" x2="800" y2="0" stroke="#ddd" stroke-width="1" opacity="1"/><line transform="translate(0,680)" x2="800" y2="0" stroke="#ddd" stroke-width="1" opacity="1"/><line transform="translate(0,640)" x2="800" y2="0" stroke="#ddd" stroke-width="1" opacity="1"/><line transform="translate(0,600)" x2="800" y2="0" stroke="#ddd" stroke-width="1" opacity="1"/><line transform="translate(0,560)" x2="800" y2="0" stroke="#ddd" stroke-width="1" opacity="1"/><line transform="translate(0,520)" x2="800" y2="0" stroke="#ddd" stroke-width="1" opacity="1"/><line transform="translate(0,480)" x2="800" y2="0" stroke="#ddd" stroke-width="1" opacity="1"/><line transform="translate(0,440)" x2="800" y2="0" stroke="#ddd" stroke-width="1" opacity="1"/><line transform="translate(0,400)" x2="800" y2="0" stroke="#ddd" stroke-width="1" opacity="1"/><line transform="translate(0,360)" x2="800" y2="0" stroke="#ddd" stroke-width="1" opacity="1"/><line transform="translate(0,320)" x2="800" y2="0" stroke="#ddd" stroke-width="1" opacity="1"/><line transform="translate(0,280)" x2="800" y2="0" stroke="#ddd" stroke-width="1" opacity="1"/><line transform="translate(0,240)" x2="800" y2="0" stroke="#ddd" stroke-width="1" opacity="1"/><line transform="translate(0,200)" x2="800" y2="0" stroke="#ddd" stroke-width="1" opacity="1"/><line transform="translate(0,160)" x2="800" y2="0" stroke="#ddd" stroke-width="1" opacity="1"/><line transform="translate(0,120)" x2="800" y2="0" stroke="#ddd" stroke-width="1" opacity="1"/><line transform="translate(0,80)" x2="800" y2="0" stroke="#ddd" stroke-width="1" opacity="1"/><line transform="translate(0,40)" x2="800" y2="0" stroke="#ddd" stroke-width="1" opacity="1"/><line transform="translate(0,0)" x2="800" y2="0" stroke="#ddd" stroke-width="1" opacity="1"/></g></g><path class="foreground" aria-hidden="true" d="" pointer-events="none" display="none"/></g></g><g class="mark-group role-axis" role="graphics-symbol" aria-roledescription="axis" aria-label="X-axis titled 'Dia' for a linear scale with values from 0 to 400"><g transform="translate(0.5,800.5)"><path class="background" aria-hidden="true" d="M0,0h0v0h0Z" pointer-events="none"/><g><g class="mark-rule role-axis-tick" pointer-events="none"><line transform="translate(0,0)" x2="0" y2="5" stroke="#888" stroke-width="1" opacity="1"/><line transform="translate(40,0)" x2="0" y2="5" stroke="#888" stroke-width="1" opacity="1"/><line transform="translate(80,0)" x2="0" y2="5" stroke="#888" stroke-width="1" opacity="1"/><line transform="translate(120,0)" x2="0" y2="5" stroke="#888" stroke-width="1" opacity="1"/><line transform="translate(160,0)" x2="0" y2="5" stroke="#888" stroke-width="1" opacity="1"/><line transform="translate(200,0)" x2="0" y2="5" stroke="#888" stroke-width="1" opacity="1"/><line transform="translate(240,0)" x2="0" y2="5" stroke="#888" stroke-width="1" opacity="1"/><line transform="translate(280,0)" x2="0" y2="5" stroke="#888" stroke-width="1" opacity="1"/><line transform="translate(320,0)" x2="0" y2="5" stroke="#888" stroke-width="1" opacity="1"/><line transform="translate(360,0)" x2="0" y2="5" stroke="#888" stroke-width="1" opacity="1"/><line transform="translate(400,0)" x2="0" y2="5" stroke="#888" stroke-width="1" opacity="1"/><line transform="translate(440,0)" x2="0" y2="5" stroke="#888" stroke-width="1" opacity="1"/><line transform="translate(480,0)" x2="0" y2="5" stroke="#888" stroke-width="1" opacity="1"/><line transform="translate(520,0)" x2="0" y2="5" stroke="#888" stroke-width="1" opacity="1"/><line transform="translate(560,0)" x2="0" y2="5" stroke="#888" stroke-width="1" opacity="1"/><line transform="translate(600,0)" x2="0" y2="5" stroke="#888" stroke-width="1" opacity="1"/><line transform="translate(640,0)" x2="0" y2="5" stroke="#888" stroke-width="1" opacity="1"/><line transform="translate(680,0)" x2="0" y2="5" stroke="#888" stroke-width="1" opacity="1"/><line transform="translate(720,0)" x2="0" y2="5" stroke="#888" stroke-width="1" opacity="1"/><line transform="translate(760,0)" x2="0" y2="5" stroke="#888" stroke-width="1" opacity="1"/><line transform="translate(800,0)" x2="0" y2="5" stroke="#888" stroke-width="1" opacity="1"/></g><g class="mark-text role-axis-label" pointer-events="none"><text text-anchor="start" transform="translate(0,15)" font-family="sans-serif" font-size="10px" fill="#000" opacity="1">0</text><text text-anchor="middle" transform="translate(40,15)" font-family="sans-serif" font-size="10px" fill="#000" opacity="1">20</text><text text-anchor="middle" transform="translate(80,15)" font-family="sans-serif" font-size="10px" fill="#000" opacity="1">40</text><text text-anchor="middle" transform="translate(120,15)" font-family="sans-serif" font-size="10px" fill="#000" opacity="1">60</text><text text-anchor="middle" transform="translate(160,15)" font-family="sans-serif" font-size="10px" fill="#000" opacity="1">80</text><text text-anchor="middle" transform="translate(200,15)" font-family="sans-serif" font-size="10px" fill="#000" opacity="1">100</text><text text-anchor="middle" transform="translate(240,15)" font-family="sans-serif" font-size="10px" fill="#000" opacity="1">120</text><text text-anchor="middle" transform="translate(280,15)" font-family="sans-serif" font-size="10px" fill="#000" opacity="1">140</text><text text-anchor="middle" transform="translate(320,15)" font-family="sans-serif" font-size="10px" fill="#000" opacity="1">160</text><text text-anchor="middle" transform="translate(360,15)" font-family="sans-serif" font-size="10px" fill="#000" opacity="1">180</text><text text-anchor="middle" transform="translate(400,15)" font-family="sans-serif" font-size="10px" fill="#000" opacity="1">200</text><text text-anchor="middle" transform="translate(440.00000000000006,15)" font-family="sans-serif" font-size="10px" fill="#000" opacity="1">220</text><text text-anchor="middle" transform="translate(480,15)" font-family="sans-serif" font-size="10px" fill="#000" opacity="1">240</text><text text-anchor="middle" transform="translate(520,15)" font-family="sans-serif" font-size="10px" fill="#000" opacity="1">260</text><text text-anchor="middle" transform="translate(560,15)" font-family="sans-serif" font-size="10px" fill="#000" opacity="1">280</text><text text-anchor="middle" transform="translate(600,15)" font-family="sans-serif" font-size="10px" fill="#000" opacity="1">300</text><text text-anchor="middle" transform="translate(640,15)" font-family="sans-serif" font-size="10px" fill="#000" opacity="1">320</text><text text-anchor="middle" transform="translate(680,15)" font-family="sans-serif" font-size="10px" fill="#000" opacity="1">340</text><text text-anchor="middle" transform="translate(720,15)" font-family="sans-serif" font-size="10px" fill="#000" opacity="1">360</text><text text-anchor="middle" transform="translate(760,15)" font-family="sans-serif" font-size="10px" fill="#000" opacity="1">380</text><text text-anchor="end" transform="translate(800,15)" font-family="sans-serif" font-size="10px" fill="#000" opacity="1">400</text></g><g class="mark-rule role-axis-domain" pointer-events="none"><line transform="translate(0,0)" x2="800" y2="0" stroke="#888" stroke-width="1" opacity="1"/></g><g class="mark-text role-axis-title" pointer-events="none"><text text-anchor="middle" transform="translate(400,30)" font-family="sans-serif" font-size="11px" font-weight="bold" fill="#000" opacity="1">Dia</text></g></g><path class="foreground" aria-hidden="true" d="" pointer-events="none" display="none"/></g></g><g class="mark-group role-axis" role="graphics-symbol" aria-roledescription="axis" aria-label="Y-axis titled 'Casos' for a linear scale with values from 0.0 to 1.0"><g transform="translate(0.5,0.5)"><path class="background" aria-hidden="true" d="M0,0h0v0h0Z" pointer-events="none"/><g><g class="mark-rule role-axis-tick" pointer-events="none"><line transform="translate(0,800)" x2="-5" y2="0" stroke="#888" stroke-width="1" opacity="1"/><line transform="translate(0,760)" x2="-5" y2="0" stroke="#888" stroke-width="1" opacity="1"/><line transform="translate(0,720)" x2="-5" y2="0" stroke="#888" stroke-width="1" opacity="1"/><line transform="translate(0,680)" x2="-5" y2="0" stroke="#888" stroke-width="1" opacity="1"/><line transform="translate(0,640)" x2="-5" y2="0" stroke="#888" stroke-width="1" opacity="1"/><line transform="translate(0,600)" x2="-5" y2="0" stroke="#888" stroke-width="1" opacity="1"/><line transform="translate(0,560)" x2="-5" y2="0" stroke="#888" stroke-width="1" opacity="1"/><line transform="translate(0,520)" x2="-5" y2="0" stroke="#888" stroke-width="1" opacity="1"/><line transform="translate(0,480)" x2="-5" y2="0" stroke="#888" stroke-width="1" opacity="1"/><line transform="translate(0,440)" x2="-5" y2="0" stroke="#888" stroke-width="1" opacity="1"/><line transform="translate(0,400)" x2="-5" y2="0" stroke="#888" stroke-width="1" opacity="1"/><line transform="translate(0,360)" x2="-5" y2="0" stroke="#888" stroke-width="1" opacity="1"/><line transform="translate(0,320)" x2="-5" y2="0" stroke="#888" stroke-width="1" opacity="1"/><line transform="translate(0,280)" x2="-5" y2="0" stroke="#888" stroke-width="1" opacity="1"/><line transform="translate(0,240)" x2="-5" y2="0" stroke="#888" stroke-width="1" opacity="1"/><line transform="translate(0,200)" x2="-5" y2="0" stroke="#888" stroke-width="1" opacity="1"/><line transform="translate(0,160)" x2="-5" y2="0" stroke="#888" stroke-width="1" opacity="1"/><line transform="translate(0,120)" x2="-5" y2="0" stroke="#888" stroke-width="1" opacity="1"/><line transform="translate(0,80)" x2="-5" y2="0" stroke="#888" stroke-width="1" opacity="1"/><line transform="translate(0,40)" x2="-5" y2="0" stroke="#888" stroke-width="1" opacity="1"/><line transform="translate(0,0)" x2="-5" y2="0" stroke="#888" stroke-width="1" opacity="1"/></g><g class="mark-text role-axis-label" pointer-events="none"><text text-anchor="end" transform="translate(-7,803)" font-family="sans-serif" font-size="10px" fill="#000" opacity="1">0.00</text><text text-anchor="end" transform="translate(-7,763)" font-family="sans-serif" font-size="10px" fill="#000" opacity="1">0.05</text><text text-anchor="end" transform="translate(-7,723)" font-family="sans-serif" font-size="10px" fill="#000" opacity="1">0.10</text><text text-anchor="end" transform="translate(-7,683)" font-family="sans-serif" font-size="10px" fill="#000" opacity="1">0.15</text><text text-anchor="end" transform="translate(-7,643)" font-family="sans-serif" font-size="10px" fill="#000" opacity="1">0.20</text><text text-anchor="end" transform="translate(-7,603)" font-family="sans-serif" font-size="10px" fill="#000" opacity="1">0.25</text><text text-anchor="end" transform="translate(-7,563)" font-family="sans-serif" font-size="10px" fill="#000" opacity="1">0.30</text><text text-anchor="end" transform="translate(-7,523)" font-family="sans-serif" font-size="10px" fill="#000" opacity="1">0.35</text><text text-anchor="end" transform="translate(-7,483)" font-family="sans-serif" font-size="10px" fill="#000" opacity="1">0.40</text><text text-anchor="end" transform="translate(-7,443.00000000000006)" font-family="sans-serif" font-size="10px" fill="#000" opacity="1">0.45</text><text text-anchor="end" transform="translate(-7,403)" font-family="sans-serif" font-size="10px" fill="#000" opacity="1">0.50</text><text text-anchor="end" transform="translate(-7,362.99999999999994)" font-family="sans-serif" font-size="10px" fill="#000" opacity="1">0.55</text><text text-anchor="end" transform="translate(-7,323)" font-family="sans-serif" font-size="10px" fill="#000" opacity="1">0.60</text><text text-anchor="end" transform="translate(-7,283)" font-family="sans-serif" font-size="10px" fill="#000" opacity="1">0.65</text><text text-anchor="end" transform="translate(-7,243.00000000000003)" font-family="sans-serif" font-size="10px" fill="#000" opacity="1">0.70</text><text text-anchor="end" transform="translate(-7,203)" font-family="sans-serif" font-size="10px" fill="#000" opacity="1">0.75</text><text text-anchor="end" transform="translate(-7,162.99999999999997)" font-family="sans-serif" font-size="10px" fill="#000" opacity="1">0.80</text><text text-anchor="end" transform="translate(-7,123.00000000000001)" font-family="sans-serif" font-size="10px" fill="#000" opacity="1">0.85</text><text text-anchor="end" transform="translate(-7,82.99999999999999)" font-family="sans-serif" font-size="10px" fill="#000" opacity="1">0.90</text><text text-anchor="end" transform="translate(-7,43.000000000000036)" font-family="sans-serif" font-size="10px" fill="#000" opacity="1">0.95</text><text text-anchor="end" transform="translate(-7,3)" font-family="sans-serif" font-size="10px" fill="#000" opacity="1">1.00</text></g><g class="mark-rule role-axis-domain" pointer-events="none"><line transform="translate(0,800)" x2="0" y2="-800" stroke="#888" stroke-width="1" opacity="1"/></g><g class="mark-text role-axis-title" pointer-events="none"><text text-anchor="middle" transform="translate(-30.462890625,400) rotate(-90) translate(0,-2)" font-family="sans-serif" font-size="11px" font-weight="bold" fill="#000" opacity="1">Casos</text></g></g><path class="foreground" aria-hidden="true" d="" pointer-events="none" display="none"/></g></g><g class="mark-group role-scope pathgroup" role="graphics-object" aria-roledescription="group mark container"><g transform="translate(0,0)"><path class="background" aria-hidden="true" d="M0,0h800v800h-800Z"/><g><g class="mark-line role-mark marks" role="graphics-object" aria-roledescription="line mark container"><path aria-label="SIR: S; Casos: 0.995024875622; Dia: 1" role="graphics-symbol" aria-roledescription="line mark" d="M2,3.980099502487544L4,4.772159104972662L6,5.641770401988655L8,6.596260434745105L10,7.643593242563185L12,8.792413705925028L14.000000000000002,10.052091904416915L16,11.43276734708012L18,12.945392261584221L20,14.601772929625412L22,16.414607827142547L24,18.397521068204803L26,20.565089360779787L28.000000000000004,22.93286036272475L30,25.517359981224264L32,28.336085795525L34,31.407483412084325L36,34.75090219887518L38,38.386526513130725L40,42.33527826257273L42,46.61868645998739L44,51.25871938866817L46,56.277575143259554L48,61.69742670512317L50,67.54011841608315L52,73.82681179235648L54,80.57758012936614L56.00000000000001,87.81095333245288L57.99999999999999,95.54341688944419L60,103.78887186477242L62,112.55806617985131L64,121.85801112953828L66,131.6914008795714L68,142.05605633193653L70,152.94441790312464L72,164.3431140510372L74,176.23263340403517L76,188.58712770474648L78,201.37437017065727L80,214.55588911645594L82,228.08728979385515L84,241.9187686309585L86,255.9958138930111L88,270.2600759685726L90,284.65037991110876L92,299.1038435134997L94,313.5570569948175L96,327.9472760944369L98,342.2135794719856L100,356.29794391649483L102,370.1461967066579L104,383.7088129246011L106,396.9415357413145L108,409.80580866488214L110.00000000000001,422.26901947841304L112.00000000000001,434.3045652242136L113.99999999999999,445.89175546120805L115.99999999999999,457.0155767444018L118,467.6663447263544L120,477.8392715740739L122,487.53397582092964L124,496.7539597320977L126,505.5060761969492L128,513.8000035035415L130,521.6477424775314L132,529.0631466833704L134,536.0614929085851L136,542.6590961205942L138,548.8729705680861L140,554.7205367083073L142,560.2193721505078L144,565.3870037614865L146,570.2407374153432L148,574.7975215155031L150,579.073840304481L152,583.085633043612L154,586.8482353376745L156,590.3763391538045L158,593.6839684053575L160,596.784467312705L162,599.6904990948307L164,602.4140528744852L166,604.966456986752L168,607.3583971610692L170,609.5999382976787L172,611.70054878071L174,613.6691264626119L176,615.5140256202L178,617.2430843235036L180,618.8636517773947L182,620.3826152952455L184,621.8064266460939L186,623.14112758434L188,624.3923744260007L190,625.5654615799363L192,626.6653439779312L194,627.696658375555L196,628.6637435176019L198,629.5706591787407L200,630.4212041026881L202,631.2189328725597L204,631.9671717516928L206,632.6690335387171L208,633.3274314834262L210,633.9450923114472L212,634.5245684061082L214,635.0682491955182L216,635.5783717919035L218.00000000000003,636.0570309288291L220.00000000000003,636.5061882402317L222.00000000000003,636.9276809232639L224.00000000000003,637.3232298249161L225.99999999999997,637.6944469902763L227.99999999999997,638.0428427081654L229.99999999999997,638.3698320877883L231.99999999999997,638.6767411979845L234,638.9648127986758L236,639.2352116921944L238,639.4890297203572L240,639.7272904314182L242,639.9509534393989L244,640.1609184967544L246,640.3580292998911L248,640.5430770456952L250,640.7168037559686L252,640.8799053854862L254,641.0330347282917L256,641.1768041358221L258,641.3117880595025L260,641.4385254295657L262,641.5575218810321L264,641.6692518370211L266,641.7741604588589L268,641.8726654717912L270,641.9651588744973L272,642.0520085400439L274,642.1335597153828L276,642.2101364260204L278,642.2820427920262L280,642.3495642611373L282,642.4129687643178L284,642.4725077987799L286,642.5284174431274L288,642.5809193089824L290,642.6302214331544L292,642.676519114149L294,642.7199956965615L296,642.7608233066624L298,642.7991635422726L300,642.8351681198156L302,642.8689794812537L304,642.9007313634305L306,642.9305493321882L308,642.9585512834678L310,642.984847913462L312,643.0095431597566L314,643.0327346152733L316,643.0545139167093L318,643.0749671090623L320,643.0941749877301L322,643.1122134195754L324,643.1291536442635L326,643.1450625570943L328,643.1600029744749L330,643.1740338831057L332,643.1872106738891L334,643.1995853615001L336,643.2112067905075L338,643.2221208288702L340,643.2323705495919L342,643.2419964012569L344,643.2510363681357L346,643.2595261204989L348,643.2674991557424L350,643.2749869308864L352,643.2820189869799L354,643.2886230659049L356,643.294825220047L358,643.3006499152712L360,643.3061201276096L362,643.3112574340494L364,643.31608209778L366,643.3206131482392L368,643.3248684562768L370,643.3288648047329L372,643.3326179547137L374,643.3361427078237L376,643.3394529646065L378,643.3425617794203L380,643.3454814119709L382,643.3482233757024L384,643.3507984832394L386,643.3532168890599L388,643.3554881295686L390,643.357621160729L392,643.359624393401L394,643.3615057265288L396,643.3632725783045L398,643.3649319154359L400,643.36649028063L401.99999999999994,643.3679538184034L404,643.369328299321L405.99999999999994,643.3706191427589L408,643.3718314382808L409.99999999999994,643.3729699657125L412,643.3740392139954L413.99999999999994,643.3750433988903L416,643.3759864796052L418,643.3768721744096L420,643.3777039752986L422,643.3784851617642L424,643.3792188137284L426,643.379907823689L428,643.3805549081267L430,643.3811626182157L432,643.3817333498855L434,643.3822693532678L436.00000000000006,643.3827727415693L438,643.3832454994044L440.00000000000006,643.3836894906211L442,643.3841064656499L444.00000000000006,643.384498068406L446,643.3848658427705L448.00000000000006,643.3852112386794L450,643.3855356178386L451.99999999999994,643.3858402590943L454,643.3861263634747L455.99999999999994,643.3863950589254L458,643.3866474047569L459.99999999999994,643.3868843958211L462,643.3871069664334L463.99999999999994,643.3873159940566L466,643.3875123027607L468,643.3876966664715L470,643.3878698120222L472,643.3880324220189L474,643.388185137532L476,643.3883285606232L478,643.3884632567194L480,643.3885897568425L482,643.388708559702L484,643.3888201336617L486.00000000000006,643.3889249185863L488,643.3890233275753L490.00000000000006,643.3891157485916L492,643.3892025459916L494.00000000000006,643.3892840619607L496,643.3893606178633L498.00000000000006,643.3894325155092L500,643.3895000383435L501.99999999999994,643.3895634525645L504,643.3896230081725L505.99999999999994,643.3896789399558L508,643.3897314684164L509.99999999999994,643.3897808006393L512,643.3898271311083L514,643.389870642474L516,643.3899115062721L518,643.3899498836018L520,643.3899859257588L522,643.3900197748334L524,643.3900515642696L526,643.3900814193919L528,643.3901094578989L530,643.3901357903277L532,643.390160520489L534,643.3901837458773L536,643.3902055580547L538,643.3902260430117L540,643.3902452815067L542,643.3902633493842L544,643.3902803178734L546,643.3902962538696L548,643.3903112201976L550,643.3903252758595L552,643.3903384762673L554,643.3903508734612L556,643.3903625163148L558,643.390373450728L560,643.3903837198079L562,643.3903933640382L564,643.3904024214398L566,643.3904109277198L568,643.3904189164126L570,643.3904264190122L572,643.3904334650963L574,643.3904400824428L576,643.3904462971392L578,643.390452133686L580,643.3904576150927L582,643.3904627629687L584,643.3904675976084L586,643.3904721380719L588,643.3904764022587L590,643.3904804069799L592,643.3904841680234L594,643.390487700216L596,643.3904910174831L598,643.3904941329023L600,643.3904970587556L602,643.3904998065776L604,643.3905023872012L606,643.3905048107998L608,643.3905070869283L610,643.3905092245598L612,643.3905112321213L614,643.3905131175275L616,643.3905148882111L618,643.3905165511529L620,643.3905181129086L622,643.3905195796351L624,643.3905209571149L626,643.3905222507781L628,643.390523465725L630,643.3905246067454L632,643.3905256783372L634,643.3905266847253L636,643.3905276298769L638,643.3905285175185L640,643.3905293511491L642,643.3905301340552L644,643.3905308693234L646,643.3905315598522L648,643.390532208364L650,643.3905328174154L652,643.3905333894073L654,643.390533926595L656,643.3905344310962L658,643.3905349048995L660,643.3905353498731L662,643.390535767771L664,643.3905361602409L666,643.3905365288299L668,643.3905368749911L670,643.3905372000892L672,643.3905375054059L674,643.3905377921449L676,643.3905380614362L678,643.390538314342L680,643.3905385518591L682,643.3905387749237L684,643.3905389844155L686,643.3905391811601L688,643.3905393659333L690,643.3905395394635L692,643.3905397024348L694,643.3905398554897L696,643.3905399992315L698,643.390540134227L700,643.3905402610084L702,643.3905403800753L704,643.3905404918974L706,643.3905405969152L708,643.3905406955431L710,643.3905407881697L712,643.3905408751601L714,643.3905409568574L716,643.3905410335836L718,643.3905411056412L720,643.3905411733143L722,643.3905412368697L724,643.3905412965578L726,643.390541352614L728,643.3905414052595L730,643.3905414547014" stroke="#e45756" stroke-width="10"/></g></g><path class="foreground" aria-hidden="true" d="" display="none"/></g><g transform="translate(0,0)"><path class="background" aria-hidden="true" d="M0,0h800v800h-800Z"/><g><g class="mark-line role-mark marks" role="graphics-object" aria-roledescription="line mark container"><path aria-label="SIR: I; Casos: 0.00497512437811; Dia: 1" role="graphics-symbol" aria-roledescription="line mark" d="M2,796.0199004975125L4,795.6258508452761L6,795.1936544637325L8,794.7197989846028L10,794.2004862783244L12,793.6316171871301L14.000000000000002,793.0087772699253L16,792.3272241002696L18,791.5818767757386L20,790.7673084301235L22,789.877742689594L24,788.9070551795724L26,787.8487813690401L28.000000000000004,786.6961322301911L30,785.4420193886725L32,784.0790916355045L34,782.5997848553948L36,780.9963875830645L38,779.2611245105026L40,777.3862603100102L42,775.3642260815946L44,773.1877705447542L46,770.8501377356874L48,768.3452724002551L50,765.6680534492696L52,762.8145547280693L54,759.7823309182527L56.00000000000001,756.5707246233407L57.99999999999999,753.1811886040152L60,749.6176147682854L62,745.886658976378L64,741.9980481290532L66,737.9648535661148L68,733.8037127571382L70,729.5349799102363L72,725.1827857713001L74,720.7749878411722L76,716.3429947563435L78,711.9214528147984L80,707.5477885875199L82,703.2616090513687L84,699.1039693091285L86,695.1165271161632L88,691.3406123289853L90,687.8162471535505L92,684.5811588358047L94,681.6698294709063L96,679.1126274241963L98,676.9350613042279L100,675.157190729296L102,673.7932188662032L104,672.8512807616397L106,672.3334298687623L108,672.2358139583184L110.00000000000001,672.5490217489557L112.00000000000001,673.2585738282596L113.99999999999999,674.3455262084392L115.99999999999999,675.7871523044015L118,677.5576690920087L120,679.6289753350884L122,681.9713735547238L124,684.5542522880833L126,687.3467105944235L128,690.3181122283888L130,693.4385620315601L132,696.6793016225652L134,700.0130252350939L136,703.4141194995753L138,706.8588331021259L140,710.325383651692L142,713.7940098443224L144,717.2469772489114L146,720.6685458701635L148,724.0449071829872L150,727.3640976757107L152,730.6158951690086L154,733.7917033580452L156,736.8844292061109L158,739.8883570339467L160,742.7990224232045L162,745.6130883987585L164,748.328225779228L166,750.9429990890385L168,753.4567590058174L170,755.8695419686261L172,758.1819772887321L174,760.3952018779571L176,762.5107825325733L178,764.5306455760125L180,766.45701356452L182,768.2923486902173L184,770.0393024703471L186,771.7006712850664L188,773.2793573148989L190,774.7783344294735L192,776.2006185885311L194,777.5492423320543L196,778.827232956802L198,780.0375939999828L200,781.1832896760374L202,782.2672319385621L204,783.2922698655726L206,784.261181091991L208,785.1766650380829L210,786.0413377062536L212,786.8577278409672L214,787.6282742674605L216,788.3553242443293L218.00000000000003,789.0411326829706L220.00000000000003,789.6878621032708L222.00000000000003,790.2975832099116L224.00000000000003,790.8722759872683L225.99999999999997,791.4138312231812L227.99999999999997,791.924052382974L229.99999999999997,792.4046577650538L231.99999999999997,792.8572828783522L234,793.2834829898256L236,793.6847357973245L238,794.0624441894294L240,794.4179390594253L242,794.7524821455021L244,795.0672688735963L246,795.3634311831L248,795.6420403189858L250,795.9041095768139L252,796.1505969896149L254,796.3824079478479L256,796.6003977455327L258,796.8053740472991L260,796.998099272506L262,797.179292893789L264,797.3496336484211L266,797.5097616617411L268,797.6602804826349L270,797.8017590316653L272,797.9347334629521L274,798.0597089413178L276,798.1771613365486L278,798.2875388368878L280,798.3912634840881L282,798.4887326324986L284,798.5803203347868L286,798.6663786569605L288,798.7472389254095L290,798.8232129086966L292,798.8945939368323L294,798.9616579607366L296,799.024664554562L298,799.0838578634957L300,799.1394674996029L302,799.1917093882046L304,799.2407865672074L306,799.2868899417289L308,799.3301989962764L310,799.3708824666546L312,799.4090989736945L314,799.4449976208084L316,799.4787185572916L318,799.5103935092094L320,799.5401462796207L322,799.5680932198134L324,799.594343673144L326,799.6190003929986L328,799.6421599363183L330,799.6639130340557L332,799.6843449398667L334,799.7035357582689L336,799.7215607534348L338,799.7384906397285L340,799.754391855034L342,799.7693268178655L344,799.7833541692003L346,799.796528999917L348,799.8089030646818L350,799.8205249830696L352,799.8314404286692L354,799.8416923068773L356,799.8513209220474L358,799.8603641346186L360,799.8688575088183L362,799.8768344514966L364,799.8843263426163L366,799.8913626578955L368,799.8979710840683L370,799.9041776272053L372,799.9100067145041L374,799.9154812899436L376,799.9206229041665L378,799.925451798936L380,799.9299869864917L382,799.9342463241111L384,799.938246584163L386,799.9420035199264L388,799.9455319274249L390,799.9488457035221L392,799.9519579004979L394,799.9548807773203L396,799.9576258478126L398,799.9602039258997L400,799.9626251681158L401.99999999999994,799.9648991135308L404,799.9670347212602L405.99999999999994,799.9690404056962L408,799.9709240696047L409.99999999999994,799.9726931352125L412,799.9743545734084L413.99999999999994,799.9759149311726L416,799.9773803573405L418,799.978756626802L420,799.9800491632328L422,799.981263060444L424,799.9824031024355L426,799.9834737822312L428,799.9844793195704L430,799.9854236775243L432,799.9863105781021L434,799.9871435169096L436.00000000000006,799.9879257769171L438,799.9886604413903L440.00000000000006,799.9893504060345L442,799.9899983904023L444.00000000000006,799.9906069486061L446,799.9911784793808L448.00000000000006,799.9917152355339L450,799.9922193328213L451.99999999999994,799.9926927582835L454,799.9931373780748L455.99999999999994,799.9935549448165L458,799.9939471045034L459.99999999999994,799.9943154029888L462,799.9946612920777L463.99999999999994,799.9949861352468L466,799.9952912130179L468,799.9955777280054L470,799.995846809654L472,799.996099518692L474,799.9963368513097L476,799.9965597430876L478,799.9967690726825L480,799.9969656652912L482,799.9971502959025L484,799.9973236923526L486.00000000000006,799.9974865381928L488,799.9976394753845L490.00000000000006,799.9977831068297L492,799.9979179987469L494.00000000000006,799.998044682903L496,799.99816365871L498.00000000000006,799.9982753951932L500,799.9983803328395L501.99999999999994,799.9984788853345L504,799.9985714411932L505.99999999999994,799.9986583652906L508,799.9987400003008L509.99999999999994,799.9988166680479L512,799.998888670774L514,799.9989562923311L516,799.9990197992997L518,799.9990794420402L520,799.999135455679L522,799.9991880610366L524,799.9992374654968L526,799.9992838638248L528,799.9993274389352L530,799.999368362613L532,799.9994067961903L534,799.999442891183L536,799.9994767898874L538,799.9995086259415L540,799.9995385248523L542,799.9995666044897L544,799.9995929755515L546,799.9996177420002L548,799.9996410014721L550,799.999662845663L552,799.999683360689L554,799.9997026274262L556,799.99972072183L558,799.9997377152338L560,799.9997536746306L562,799.9997686629371L564,799.9997827392417L566,799.9997959590377L568,799.999808374441L570,799.9998200343973L572,799.9998309848735L574,799.9998412690397L576,799.9998509274393L578,799.9998599981485L580,799.999868516927L582,799.9998765173584L584,799.9998840309827L586,799.999891087421L588,799.999897714492L590,799.9999039383216L592,799.9999097834461L594,799.9999152729089L596,799.9999204283508L598,799.9999252700966L600,799.9999298172336L602,799.9999340876882L604,799.9999380982958L606,799.9999418648675L608,799.9999454022524L610,799.9999487243957L612,799.9999518443946L614,799.9999547745489L616,799.9999575264104L618,799.9999601108276L620,799.9999625379892L622,799.9999648174637L624,799.9999669582376L626,799.9999689687506L628,799.9999708569286L630,799.9999726302154L632,799.999974295602L634,799.9999758596538L636,799.9999773285366L638,799.9999787080415L640,799.9999800036068L642,799.9999812203399L644,799.9999823630378L646,799.9999834362052L648,799.9999844440729L650,799.9999853906143L652,799.9999862795609L654,799.999987114417L656,799.9999878984743L658,799.9999886348235L660,799.9999893263675L662,799.9999899758328L664,799.9999905857796L666,799.9999911586127L668,799.9999916965902L670,799.999992201833L672,799.9999926763331L674,799.9999931219609L676,799.9999935404733L678,799.9999939335203L680,799.9999943026512L682,799.9999946493214L684,799.9999949748975L686,799.999995280663L688,799.9999955678236L690,799.999995837511L692,799.9999960907886L694,799.9999963286549L696,799.9999965520476L698,799.9999967618473L700,799.9999969588813L702,799.9999971439262L704,799.9999973177115L706,799.9999974809224L708,799.9999976342023L710,799.9999977781555L712,799.9999979133495L714,799.9999980403172L716,799.9999981595593L718,799.9999982715457L720,799.9999983767182L722,799.999998475491L724,799.9999985682538L726,799.9999986553721L728,799.9999987371896L730,799.9999988140286" stroke="#4c78a8" stroke-width="10"/></g></g><path class="foreground" aria-hidden="true" d="" display="none"/></g><g transform="translate(0,0)"><path class="background" aria-hidden="true" d="M0,0h800v800h-800Z"/><g><g class="mark-line role-mark marks" role="graphics-object" aria-roledescription="line mark container"><path aria-label="SIR: R; Casos: 0; Dia: 1" role="graphics-symbol" aria-roledescription="line mark" d="M2,800L4,799.6019900497513L6,799.164575134279L8,798.683940580652L10,798.1559204791123L12,797.5759691069447L14.000000000000002,796.9391308256578L16,796.2400085526504L18,795.4727309626774L20,794.6309186402513L22,793.7076494832636L24,792.695423752223L26,791.5861292701802L28.000000000000004,790.3710074070842L30,789.0406206301033L32,787.5848225689706L34,785.9927317325211L36,784.2527102180605L38,782.3523489763669L40,780.2784614274171L42,778.0170874584182L44,775.5535100665776L46,772.8722871210531L48,769.9573008946219L50,766.7918281346474L52,763.3586334795743L54,759.6400889523812L56.00000000000001,755.6183220442065L57.99999999999999,751.2753945065406L60,746.5935133669421L62,741.5552748437707L64,736.1439407414084L66,730.3437455543138L68,724.1402309109253L70,717.520602186639L72,710.4741001776628L74,702.9923787547928L76,695.06987753891L78,686.7041770145443L80,677.8963222960241L82,668.6511011547761L84,658.9772620599131L86,648.8876589908259L88,638.3993117024422L90,627.5333729353408L92,616.3149976506958L94,604.7731135342763L96,592.9400964813668L98,580.8513592237865L100,568.5448653542093L102,556.0605844271389L104,543.4399063137593L106,530.7250343899233L108,517.9583773767995L110.00000000000001,505.1819587726312L112.00000000000001,492.4368609475268L113.99999999999999,479.76271833035275L115.99999999999999,467.1972709511967L118,454.7759861816369L120,442.53175309083764L122,430.4946506243465L124,418.6917879798189L126,407.14721320862725L128,395.8818842680696L130,384.9136954909085L132,374.25755169406443L134,363.92548185632097L136,353.9267843798303L138,344.2681963297878L140,334.9540796400004L142,325.9866180051696L144,317.3660189896019L146,309.09071671449306L148,301.1575713015094L150,293.5620620198081L152,286.2984717873791L154,279.36006130428L156,272.73923164008454L158,266.4276745606956L160,260.4165102640902L162,254.69641250641067L164,249.2577213462865L166,244.09054392420933L168,239.18484383311318L170,234.53051973369492L172,230.11747393055754L174,225.9356716594308L176,221.97519184722648L178,218.2262701004838L180,214.679334658085L182,211.32503601453703L184,208.15427088355872L186,205.15820113059345L188,202.32826825910007L190,199.65620399058997L192,197.1340374335373L194,194.7540992923904L196,192.50902352559586L198,190.3917468212761L200,188.39550622127436L202,186.51383518887812L204,184.74055838273432L206,183.06978536929162L208,181.49590347849073L210,180.01356998229897L212,178.6177037529243L214,177.30347653702108L216,176.0663039637671L218.00000000000003,174.90183638820005L220.00000000000003,173.80594965649712L222.00000000000003,172.77473586682416L224.00000000000003,171.80449418781532L225.99999999999997,170.89172178654212L227.99999999999997,170.03310490886028L229.99999999999997,169.2255101471577L231.99999999999997,168.46597592366308L234,167.75170421149826L236,167.08005251048084L238,166.44852609021328L240,165.85477050915625L242,165.29656441509877L244,164.771812629649L246,164.2785395170086L248,163.8148826353186L250,163.37908666721717L252,162.96949762489854L254,162.58455732386005L256,162.22279811864482L258,161.88283789319806L260,161.56337529792796L262,161.2631852251786L264,160.98111451455753L266,160.71607787939968L268,160.46705404557375L270,160.23308209383725L272,160.01325799700376L274,159.80673134329902L276,159.61270223743077L278,159.43041837108564L280,159.2591722547744L282,159.09829860318317L284,158.94717186643302L286,158.8052038999117L288,158.6718417656078L290,158.54656565814872L292,158.42888694901836L294,158.3183463427016L296,158.2145121387753L298,158.11697859423148L300,158.02536438058104L302,157.93931113054134L304,157.85848206936183L306,157.78256072608255L308,157.71124972025544L310,157.64426961988312L312,157.58135786654856L314,157.52226776391797L316,157.46676752599882L318,157.414639381728L320,157.36567873264892L322,157.319693360611L324,157.2765026825923L326,157.23593704990674L328,157.19783708920662L330,157.1620530828384L332,157.12844438624396L334,157.09687888023058L336,157.0672324560575L338,157.039388531401L340,157.01323759537385L342,156.98867678087726L344,156.96560946266382L346,156.94394487958388L348,156.92359777957554L350,156.9044880860437L352,156.8865405843506L354,156.8696846272175L356,156.85385385790528L358,156.83898595011004L360,156.82502236357186L362,156.81190811445367L364,156.79959155960336L366,156.78802419386503L368,156.77716045965457L370,156.76695756806137L372,156.7573753307819L374,156.74837600223236L376,156.7399241312267L378,156.7319864216434L380,156.72453160153702L382,156.71753030018616L384,156.71095493259725L386,156.70477959101356L388,156.6989799430062L390,156.6935331357487L392,156.68841770610095L394,156.6836134961507L396,156.67910157388275L398,156.67486415866404L400,156.670884551254L401.99999999999994,156.66714706806556L404,156.66363697941864L405.99999999999994,156.66034045154467L408,156.65724449211424L409.99999999999994,156.65433689907476L412,156.65160621259605L413.99999999999994,156.6490416699369L416,156.6466331630542L418,156.64437119878824L420,156.6422468614684L422,156.64025177779166L424,156.63837808383602L426,156.63661839407953L428,156.63496577230268L430,156.6334137042597L432,156.6319560720122L434,156.63058712982237L436.00000000000006,156.6293014815133L438,156.62809405920504L440.00000000000006,156.6269601033441L442,156.6258951439475L444.00000000000006,156.62489498298777L446,156.62395567784841L448.00000000000006,156.62307352578654L450,156.62224504933988L451.99999999999994,156.621466982622L454,156.62073625845034L455.99999999999994,156.62004999625782L458,156.61940549073944L459.99999999999994,156.61880020118977L462,156.61823174148867L463.99999999999994,156.61769787069647L466,156.61719648422113L468,156.61672560552296L470,156.6162833783235L472,156.61586805928886L474,156.61547801115807L476,156.61511169628906L478,156.61476767059784L480,156.61444457786607L482,156.61414114439518L484,156.61385617398543L486.00000000000006,156.61358854322066L488,156.61333719703993L490.00000000000006,156.61310114457834L492,156.6128794552613L494.00000000000006,156.61267125513598L496,156.61247572342631L498.00000000000006,156.61229208929734L500,156.61211962881669L501.99999999999994,156.61195766210065L504,156.61180555063413L505.99999999999994,156.6116626947534L508,156.6115285312825L509.99999999999994,156.61140253131256L512,156.61128419811732L514,156.61117306519472L516,156.61106869442784L518,156.61097067435782L520,156.61087861856186L522,156.6107921641298L524,156.6107109702335L526,156.61063471678318L528,156.61056310316565L530,156.61049584705918L532,156.6104326833205L534,156.61037336293955L536,156.61031765205786L538,156.6102653310466L540,156.61021619364072L542,156.61017004612594L544,156.61012670657487L546,156.61008600413L548,156.61004777833006L550,156.61001187847728L552,156.60997816304354L554,156.60994649911243L556,156.60991676185506L558,156.609888834038L560,156.60986260556137L562,156.60983797302438L564,156.60981483931806L566,156.6097931132423L568,156.609772709146L570,156.6097535465901L572,156.60973555002985L574,156.60971864851723L576,156.60970277542123L578,156.60968786816517L580,156.6096738679801L582,156.60966071967275L584,156.60964837140855L586,156.6096367745068L588,156.60962588324887L590,156.60961565469808L592,156.6096060485302L594,156.60959702687478L596,156.60958855416567L598,156.6095805970008L600,156.60957312401047L602,156.60956610573385L604,156.60955951450265L606,156.6095533243322L608,156.609547510819L610,156.60954205104423L612,156.6095369234838L614,156.60953210792323L616,156.60952758537815L618,156.60952333801913L620,156.60951934910184L622,156.60951560290073L624,156.60951208464712L626,156.60950878047092L628,156.60950567734596L630,156.60950276303885L632,156.60950002606037L634,156.6094974556206L636,156.60949504158594L638,156.60949277443964L640,156.6094906452438L642,156.6094886456045L644,156.60948676763846L646,156.60948500394224L648,156.6094833475628L650,156.60948179197004L652,156.60948033103148L654,156.60947895898758L656,156.60947767042924L658,156.60947646027665L660,156.60947532375903L662,156.60947425639574L664,156.60947325397902L666,156.609472312557L668,156.60947142841826L670,156.6094705980773L672,156.60946981826066L674,156.60946908589395L676,156.60946839809L678,156.60946775213728L680,156.6094671454893L682,156.6094665757544L684,156.60946604068647L686,156.60946553817627L688,156.6094650662426L690,156.60946462302493L692,156.60946420677604L694,156.60946381585487L696,156.60946344872036L698,156.60946310392515L700,156.60946278010988L702,156.60946247599804L704,156.60946219039067L706,156.60946192216184L708,156.60946167025412L710,156.60946143367437L712,156.60946121148987L714,156.6094610028248L716,156.6094608068565L718,156.60946062281243L720,156.60946044996703L722,156.60946028763885L724,156.6094601351879L726,156.60945999201329L728,156.60945985755052L730,156.6094597312695" stroke="#f58518" stroke-width="10"/></g></g><path class="foreground" aria-hidden="true" d="" display="none"/></g></g><g class="mark-group role-legend" role="graphics-symbol" aria-roledescription="legend" aria-label="Symbol legend titled 'SIR' for stroke color with 3 values: I, R, S"><g transform="translate(818,0)"><path class="background" aria-hidden="true" d="M0,0h67v145h-67Z" pointer-events="none"/><g><g class="mark-group role-legend-entry"><g transform="translate(0,45)"><path class="background" aria-hidden="true" d="M0,0h0v0h0Z" pointer-events="none"/><g><g class="mark-group role-scope" role="graphics-object" aria-roledescription="group mark container"><g transform="translate(0,0)"><path class="background" aria-hidden="true" d="M0,0h59.109375v32h-59.109375Z" pointer-events="none" opacity="1"/><g><g class="mark-symbol role-legend-symbol" pointer-events="none"><path transform="translate(16,16)" d="M-5,0L5,0" stroke="#4c78a8" stroke-width="1.5" opacity="1"/></g><g class="mark-text role-legend-label" pointer-events="none"><text text-anchor="start" transform="translate(36,26)" font-family="sans-serif" font-size="32px" fill="#000" opacity="1">I</text></g></g><path class="foreground" aria-hidden="true" d="" pointer-events="none" display="none"/></g><g transform="translate(0,34)"><path class="background" aria-hidden="true" d="M0,0h59.109375v32h-59.109375Z" pointer-events="none" opacity="1"/><g><g class="mark-symbol role-legend-symbol" pointer-events="none"><path transform="translate(16,16)" d="M-5,0L5,0" stroke="#f58518" stroke-width="1.5" opacity="1"/></g><g class="mark-text role-legend-label" pointer-events="none"><text text-anchor="start" transform="translate(36,26)" font-family="sans-serif" font-size="32px" fill="#000" opacity="1">R</text></g></g><path class="foreground" aria-hidden="true" d="" pointer-events="none" display="none"/></g><g transform="translate(0,68)"><path class="background" aria-hidden="true" d="M0,0h59.109375v32h-59.109375Z" pointer-events="none" opacity="1"/><g><g class="mark-symbol role-legend-symbol" pointer-events="none"><path transform="translate(16,16)" d="M-5,0L5,0" stroke="#e45756" stroke-width="1.5" opacity="1"/></g><g class="mark-text role-legend-label" pointer-events="none"><text text-anchor="start" transform="translate(36,26)" font-family="sans-serif" font-size="32px" fill="#000" opacity="1">S</text></g></g><path class="foreground" aria-hidden="true" d="" pointer-events="none" display="none"/></g></g></g><path class="foreground" aria-hidden="true" d="" pointer-events="none" display="none"/></g></g><g class="mark-text role-legend-title" pointer-events="none"><text text-anchor="start" transform="translate(0,32)" font-family="sans-serif" font-size="40px" font-weight="bold" fill="#000" opacity="1">SIR</text></g></g><path class="foreground" aria-hidden="true" d="" pointer-events="none" display="none"/></g></g></g><path class="foreground" aria-hidden="true" d="" display="none"/></g></g></g></svg>